<?xml version="1.0" standalone="no"?>
<!DOCTYPE svg PUBLIC "-//W3C//DTD SVG 20010904//EN"
 "http://www.w3.org/TR/2001/REC-SVG-20010904/DTD/svg10.dtd">
<svg version="1.0" xmlns="http://www.w3.org/2000/svg"
 width="650.000000pt" height="650.000000pt" viewBox="0 0 650.000000 650.000000"
 preserveAspectRatio="xMidYMid meet">

<g transform="translate(0.000000,650.000000) scale(0.100000,-0.100000)"
fill="#000000" stroke="none">
<path d="M3162 5810 c-67 -30 -82 -73 -82 -237 l0 -133 -132 0 c-107 0 -140
-4 -168 -18 -107 -53 -107 -211 0 -264 28 -14 61 -18 168 -18 l132 0 -2 -317
-3 -316 -1249 -452 c-690 -249 -1254 -458 -1259 -467 -13 -19 -2 -64 17 -71 8
-3 609 111 1336 254 l1322 260 1325 -261 c730 -144 1336 -259 1349 -256 27 7
39 38 25 63 -6 12 -409 161 -1283 474 l-1273 456 -3 316 -2 317 147 0 c121 0
154 3 183 18 107 53 107 211 0 264 -29 15 -62 18 -182 18 l-148 0 0 133 c0
164 -15 207 -82 237 -24 11 -54 20 -68 20 -14 0 -44 -9 -68 -20z"/>
<path d="M3170 3663 c-179 -30 -332 -158 -390 -329 -91 -264 56 -555 322 -635
56 -17 88 -21 172 -17 98 3 108 6 188 45 108 54 184 131 236 240 33 71 37 87
40 180 5 125 -17 209 -79 303 -104 155 -307 244 -489 213z"/>
<path d="M1350 3217 c-170 -49 -294 -188 -321 -361 -25 -159 50 -331 185 -422
181 -123 444 -87 580 79 182 222 109 551 -149 674 -65 31 -88 36 -163 39 -52
2 -105 -1 -132 -9z"/>
<path d="M4900 3214 c-209 -56 -350 -278 -311 -490 31 -170 140 -295 299 -344
215 -67 440 37 533 245 31 70 38 222 14 297 -26 77 -58 129 -118 186 -115 108
-265 147 -417 106z"/>
<path d="M2833 2606 c-123 -30 -255 -128 -320 -237 -17 -30 -64 -137 -103
-239 -61 -160 -70 -189 -61 -213 13 -33 50 -52 84 -43 14 3 80 56 148 118 119
108 124 111 127 85 3 -26 -62 -1035 -74 -1144 l-5 -51 -92 -6 c-149 -10 -428
-26 -482 -29 l-50 -2 -36 505 c-20 278 -35 507 -33 509 1 1 54 -42 116 -98 94
-84 118 -101 145 -101 35 0 53 21 53 63 0 30 -102 304 -137 369 -31 58 -123
148 -181 177 -89 46 -138 51 -459 51 -182 0 -323 -4 -355 -11 -115 -24 -246
-122 -295 -220 -43 -87 -153 -351 -153 -368 0 -28 45 -64 72 -58 13 4 74 52
135 107 62 56 113 95 113 88 2 -47 -75 -1104 -80 -1111 -3 -4 -68 -16 -144
-26 -133 -19 -156 -24 -143 -37 3 -3 981 -8 2174 -11 2091 -6 3043 0 3043 18
0 12 -61 26 -170 39 -52 6 -98 14 -101 18 -8 9 -82 1060 -77 1093 3 20 15 12
117 -79 63 -56 123 -102 133 -102 20 0 68 42 68 59 0 16 -117 327 -140 370
-36 72 -116 148 -198 188 l-76 38 -375 0 -376 0 -65 -31 c-78 -37 -147 -96
-188 -161 -35 -55 -162 -370 -162 -402 0 -26 34 -61 60 -61 20 0 41 16 178
139 45 40 82 68 82 62 0 -29 -71 -1005 -73 -1007 -1 -2 -140 3 -307 9 l-305
12 -3 30 c-8 98 -81 1199 -79 1201 1 1 62 -51 135 -117 105 -94 138 -119 161
-119 33 0 71 39 71 74 0 33 -144 390 -180 446 -67 104 -205 196 -329 220 -79
15 -743 12 -808 -4z m499 -1168 c78 -23 111 -66 243 -318 l122 -235 -440 -3
c-242 -1 -442 0 -445 2 -7 7 226 453 256 487 56 67 169 96 264 67z m-1817
-149 c82 -21 117 -63 216 -261 49 -98 87 -183 84 -188 -4 -6 -34 -10 -69 -10
-34 0 -174 -11 -312 -25 -374 -38 -374 -38 -374 -30 0 4 50 104 110 221 119
228 153 272 228 292 51 14 66 14 117 1z m3575 -9 c76 -21 104 -58 221 -292 61
-121 108 -222 106 -225 -3 -2 -32 1 -64 7 -76 13 -398 47 -528 55 -55 3 -115
8 -133 11 l-32 5 87 172 c48 94 101 187 118 206 54 62 139 85 225 61z"/>
</g>
</svg>
