<?xml version="1.0" standalone="no"?>
<!DOCTYPE svg PUBLIC "-//W3C//DTD SVG 20010904//EN"
 "http://www.w3.org/TR/2001/REC-SVG-20010904/DTD/svg10.dtd">
<svg version="1.0" xmlns="http://www.w3.org/2000/svg"
 width="200.000000pt" height="200.000000pt" viewBox="0 0 200.000000 200.000000"
 preserveAspectRatio="xMidYMid meet">

<g transform="translate(0.000000,200.000000) scale(0.100000,-0.100000)"
fill="#000000" stroke="none">
<path d="M879 1932 c-177 -47 -316 -198 -349 -382 -7 -36 -9 -87 -5 -115 9
-69 55 -203 115 -336 28 -61 50 -113 48 -114 -2 -2 -68 -15 -148 -29 -99 -18
-150 -32 -161 -44 -9 -9 -54 -100 -99 -200 -69 -155 -81 -187 -72 -207 7 -15
131 -89 405 -239 l394 -216 319 65 c390 79 359 72 378 91 26 26 19 55 -49 205
l-66 144 33 29 c157 137 178 159 178 180 0 13 -8 30 -17 38 -10 8 -112 63
-228 122 -115 60 -212 110 -214 112 -2 2 15 46 38 99 64 145 92 233 98 311 10
129 -33 247 -129 349 -123 132 -295 182 -469 137z m266 -136 c109 -50 183
-146 206 -266 13 -75 3 -131 -53 -272 -61 -155 -260 -532 -285 -543 -27 -10
-44 12 -131 173 -166 306 -237 484 -236 597 0 151 110 288 263 332 66 19 170
9 236 -21z m483 -1041 c2 -2 -34 -35 -80 -75 -46 -39 -86 -81 -91 -92 -5 -15
9 -58 53 -156 33 -75 56 -139 52 -143 -4 -3 -126 -30 -272 -59 l-265 -54 -342
188 c-320 175 -341 189 -333 209 10 27 110 240 114 244 6 7 279 52 286 48 4
-3 34 -52 65 -110 62 -114 86 -138 146 -157 49 -14 111 2 149 40 14 15 59 86
99 159 l73 132 171 -85 c95 -48 173 -88 175 -89z"/>
<path d="M905 1681 c-84 -39 -135 -120 -135 -213 0 -68 26 -123 78 -170 169
-153 433 17 373 240 -15 53 -73 119 -126 143 -52 24 -138 24 -190 0z m145
-116 c32 -17 60 -61 60 -95 0 -62 -65 -117 -128 -106 -98 16 -123 145 -38 197
38 23 67 24 106 4z"/>
</g>
</svg>
